<svg viewBox="0 0 49 48" fill="none" xmlns="http://www.w3.org/2000/svg">
<path d="M39.1798 28.98L37.1798 25.66C36.7598 24.92 36.3798 23.52 36.3798 22.7V17.64C36.3798 12.94 33.6198 8.88 29.6398 6.98C28.5998 5.14 26.6798 4 24.4798 4C22.2998 4 20.3399 5.18 19.2999 7.04C15.3999 8.98 12.6999 13 12.6999 17.64V22.7C12.6999 23.52 12.3199 24.92 11.8999 25.64L9.87989 28.98C9.07989 30.32 8.89989 31.8 9.39989 33.16C9.87989 34.5 11.0199 35.54 12.4999 36.04C16.3799 37.36 20.4599 38 24.5398 38C28.6198 38 32.6998 37.36 36.5798 36.06C37.9798 35.6 39.0598 34.54 39.5798 33.16C40.0998 31.78 39.9598 30.26 39.1798 28.98Z" fill="currentColor"/>
<path d="M30.1594 40.02C29.3194 42.34 27.0994 44 24.4994 44C22.9194 44 21.3594 43.36 20.2594 42.22C19.6194 41.62 19.1394 40.82 18.8594 40C19.1194 40.04 19.3794 40.06 19.6594 40.1C20.1194 40.16 20.5994 40.22 21.0794 40.26C22.2194 40.36 23.3794 40.42 24.5394 40.42C25.6794 40.42 26.8194 40.36 27.9394 40.26C28.3594 40.22 28.7794 40.2 29.1794 40.14C29.4994 40.1 29.8194 40.06 30.1594 40.02Z" fill="currentColor"/>
</svg>
