<svg width="64" height="64" viewBox="0 0 64 64" fill="none" xmlns="http://www.w3.org/2000/svg">
<path d="M32.2305 5.00002C23.8485 4.90002 16.4987 10.5936 13.8887 18.5586C11.1277 26.9836 15.386 33.6402 18.623 38.6992C20.014 40.8732 21.2607 42.8205 21.7637 44.5235C22.0197 45.3905 22.7855 46 23.6895 46H25C25 43.099 23.2164 40.311 21.1504 37.082C18.7354 33.309 16 29.033 16 24C16 15.25 23.0592 8.11802 31.7832 8.00002C38.6592 7.90902 44.5963 12.4157 47.0293 18.8477C49.8113 26.2027 46.0486 32.083 42.8496 37.082C40.7836 40.311 39 43.099 39 46H40.3105C41.2145 46 41.9803 45.3895 42.2363 44.5235C42.7403 42.8205 43.986 40.8752 45.377 38.7012C47.883 34.7852 51 29.911 51 24C51 13.6 42.6005 5.12502 32.2305 5.00002ZM8.6543 6.54884L6.81055 8.91603L11.3457 12.4512L13.1895 10.084L8.6543 6.54884ZM55.3477 6.55275L50.8105 10.086L52.6543 12.4531L57.1914 8.91798L55.3477 6.55275ZM2 23V26H7V23H2ZM57 23V26H62V23H57ZM26.8027 24.7559L26.4473 24.957C25.2073 25.663 24.6815 27.165 25.1855 28.5C26.3125 31.485 28 37.389 28 46H31C31 32.26 26.9737 25.0569 26.8027 24.7559ZM37.1973 24.7559C37.0263 25.0559 33 32.26 33 46H36C36 37.388 37.6865 31.483 38.8125 28.5C39.3165 27.167 38.7936 25.668 37.5566 24.961L37.1973 24.7559ZM52.6543 35.5488L50.8105 37.916L55.3457 41.4512L57.1895 39.084L52.6543 35.5488ZM11.3438 35.5508L6.80859 39.086L8.65234 41.4512L13.1875 37.918L11.3438 35.5508ZM23 49L23.6094 53.2617C23.8444 54.9097 25.0762 56.2386 26.7012 56.5996L28.1152 56.9141C28.5299 58.681 30.1067 60 32 60C33.8933 60 35.4701 58.681 35.8848 56.9141L37.2988 56.5996C38.9238 56.2386 40.1556 54.9097 40.3906 53.2617L41 49H33H31H23Z" fill="#F7A600"/>
</svg>
