<svg width="30" height="30" viewBox="0 0 30 30" fill="none" xmlns="http://www.w3.org/2000/svg">
    <path d="M8.46383 11.8874C8.55142 11.9747 8.66622 12.0186 8.78101 12.0186C8.89581 12.0186 9.0106 11.975 9.09819 11.8874L9.67007 11.3155L10.242 11.8874C10.3295 11.975 10.4443 12.0186 10.5591 12.0186C10.6739 12.0186 10.7887 11.975 10.8763 11.8874C11.0515 11.7122 11.0515 11.4282 10.8763 11.253L10.3044 10.6808L10.8763 10.1087C11.0515 9.93347 11.0515 9.64947 10.8763 9.47429C10.7011 9.29941 10.4174 9.29941 10.2423 9.47429L9.67037 10.0462L9.09849 9.47429C8.92331 9.29911 8.63961 9.29941 8.46443 9.47429C8.28925 9.64947 8.28925 9.93347 8.46443 10.1087L9.03631 10.6808L8.46443 11.253C8.28865 11.4282 8.28865 11.7122 8.46383 11.8874Z" fill="#0792B7"/>
    <path d="M26.8343 10.8033C26.7616 10.8033 26.6905 10.809 26.6193 10.8141V6.05999C26.6193 5.81216 26.4184 5.61157 26.1709 5.61157H15.0364H3.90192C3.65439 5.61157 3.4535 5.81216 3.4535 6.05999V10.8335C3.32466 10.8156 3.19432 10.8033 3.06069 10.8033C1.48375 10.8033 0.200684 12.0861 0.200684 13.6628C0.200684 14.9315 1.06135 16.045 2.25742 16.3969V22.168C2.25742 23.3339 3.05411 24.2828 4.03345 24.2828C4.05378 24.2828 4.07381 24.2801 4.09414 24.2795C4.1055 24.2804 4.11656 24.2828 4.12822 24.2828H25.863C26.8417 24.2828 27.6381 23.3342 27.6381 22.168V16.3969C28.8342 16.045 29.6949 14.9315 29.6949 13.6628C29.6946 12.0861 28.4115 10.8033 26.8343 10.8033ZM25.7225 11.0287C24.6971 11.4634 23.9761 12.4807 23.9761 13.6631C23.9761 13.7222 23.9716 13.8302 23.9665 13.9611C23.9414 14.594 23.936 14.9449 23.9758 15.156L23.9701 16.5156H15.4845V6.509H25.7222L25.7225 11.0287ZM5.94909 22.2159L5.92876 17.4121H23.9668L23.9471 22.218C23.9471 22.6478 24.0774 23.0514 24.2953 23.3862H5.60022C5.81875 23.0505 5.94909 22.6466 5.94909 22.2159ZM4.35034 6.50871H14.588V16.5153H5.92488L5.9192 15.1557C5.95866 14.9446 5.95358 14.594 5.92846 13.9611C5.92308 13.8302 5.9189 13.7222 5.9189 13.6631C5.9189 12.551 5.27946 11.5875 4.35034 11.1148V6.50871ZM3.15396 22.168V16.0376C3.15396 15.8155 2.99133 15.6265 2.77161 15.5939C1.81708 15.4522 1.09722 14.6221 1.09722 13.6628C1.09722 12.5806 1.97791 11.7002 3.06039 11.7002C3.29416 11.7002 3.51777 11.7435 3.72584 11.8189C3.72763 11.8198 3.72943 11.8201 3.73122 11.821C4.48277 12.096 5.02177 12.8167 5.02177 13.6628C5.02177 13.7288 5.02655 13.8496 5.03193 13.9961C5.04209 14.2517 5.06571 14.8502 5.0406 14.9778C5.02774 15.0203 5.02147 15.0642 5.02177 15.1084L5.05196 22.2177C5.05196 22.8864 4.51386 23.3859 4.03316 23.3859C3.55664 23.3859 3.15396 22.8281 3.15396 22.168ZM27.1236 15.5939C26.9039 15.6265 26.7413 15.8155 26.7413 16.0376V22.168C26.7413 22.8281 26.3389 23.3859 25.863 23.3859C25.3811 23.3859 24.8442 22.9061 24.8442 22.2194L24.8735 15.1084C24.8738 15.0639 24.8702 15.0313 24.8573 14.9889C24.8289 14.8499 24.8529 14.2517 24.863 13.9964C24.869 13.8499 24.8735 13.7288 24.8735 13.6628C24.8735 12.7862 25.4508 12.0425 26.2448 11.7914C26.2737 11.7866 26.3018 11.7791 26.3288 11.7689C26.4905 11.7256 26.6594 11.7002 26.8346 11.7002C27.9173 11.7002 28.798 12.5806 28.798 13.6628C28.7977 14.6221 28.0782 15.4522 27.1236 15.5939Z" fill="#0792B7"/>
    <path d="M19.8436 10.6811L19.2718 11.2533C19.0966 11.4284 19.0966 11.7124 19.2718 11.8876C19.3594 11.9749 19.4742 12.0189 19.5889 12.0189C19.7037 12.0189 19.8185 11.9752 19.9061 11.8876L20.478 11.3157L21.0499 11.8876C21.1375 11.9752 21.2523 12.0189 21.3671 12.0189C21.4819 12.0189 21.5967 11.9752 21.6843 11.8876C21.8594 11.7124 21.8594 11.4284 21.6843 11.2533L21.1124 10.6811L21.6843 10.1089C21.8594 9.93371 21.8594 9.64972 21.6843 9.47454C21.5091 9.29965 21.2254 9.29965 21.0502 9.47454L20.4783 10.0464L19.9064 9.47454C19.7312 9.29935 19.4475 9.29965 19.2724 9.47454C19.0972 9.64972 19.0972 9.93371 19.2724 10.1089L19.8436 10.6811Z" fill="#0792B7"/>
</svg>