<svg viewBox="0 0 40 40" fill="none" xmlns="http://www.w3.org/2000/svg">
<circle cx="20" cy="20" r="20" fill="currentFill"/>
<path d="M29 11.5H29.0001C29.6381 11.4999 30.252 11.7437 30.7161 12.1815C31.1018 12.5454 31.3598 13.0204 31.4571 13.5361L20 19.264L8.54285 13.5361C8.64022 13.0204 8.89817 12.5454 9.28388 12.1815C9.74797 11.7437 10.3619 11.4999 10.9999 11.5H11H29ZM19.7764 23.6242L20 23.736L20.2236 23.6242L31.5 17.986V26C31.5 26.663 31.2366 27.2989 30.7678 27.7678C30.2989 28.2366 29.663 28.5 29 28.5H11C10.337 28.5 9.70107 28.2366 9.23223 27.7678C8.76339 27.2989 8.5 26.663 8.5 26V17.986L19.7764 23.6242Z" fill="currentColor" stroke="currentColor"/>
</svg>
