<svg viewBox="0 0 11 22" fill="none" xmlns="http://www.w3.org/2000/svg">
<path d="M3.38462 1.13312C4.24417 0.316429 5.461 0.0388421 6.6142 0.00669688C7.83136 -0.00401814 9.04856 0.00133939 10.2654 0.00133939C10.2707 1.28781 10.2707 2.56894 10.2654 3.85541C9.4808 3.85541 8.69061 3.85541 7.90605 3.85541C7.40946 3.82327 6.89716 4.20231 6.80643 4.69889C6.7957 5.55843 6.80106 6.41765 6.80106 7.27718C7.9539 7.28255 9.10714 7.27718 10.26 7.28255C10.1746 8.52618 10.0199 9.76478 9.83841 10.9926C8.81885 11.0034 7.79922 10.9926 6.77959 10.998C6.76892 14.6652 6.78496 18.3271 6.77429 21.9947C5.25808 22 3.74759 21.9893 2.23141 22C2.20463 18.3328 2.23141 14.6656 2.21534 10.998C1.47868 10.9926 0.736658 11.0034 0 10.9926C0.00535753 9.75941 0 8.52651 0 7.29865C0.736658 7.28791 1.47868 7.29865 2.21534 7.29328C2.23677 6.09754 2.19391 4.89645 2.23677 3.70071C2.31713 2.7454 2.67475 1.78975 3.38462 1.13312Z" fill="currentColor"/>
</svg>
