<svg viewBox="0 0 25 25" fill="none" xmlns="http://www.w3.org/2000/svg">
<path d="M12.5 0.318604C5.87265 0.318604 0.5 5.69125 0.5 12.3186C0.5 18.946 5.87265 24.3186 12.5 24.3186C19.1274 24.3186 24.5 18.946 24.5 12.3186C24.5 5.69125 19.1274 0.318604 12.5 0.318604ZM16.0256 7.19685C15.4552 7.19685 14.8812 7.19685 14.311 7.19685C13.9501 7.17349 13.5778 7.44896 13.5118 7.80984C13.5041 8.43452 13.5079 9.05895 13.5079 9.68363C14.3458 9.68752 15.1839 9.68363 16.022 9.68752C15.9599 10.5913 15.8475 11.4915 15.7156 12.3838C14.9746 12.3916 14.2336 12.3838 13.4926 12.3877C13.4848 15.0529 13.4965 17.7141 13.4887 20.3795C12.3868 20.3834 11.2891 20.3756 10.1872 20.3834C10.1677 17.7183 10.1872 15.0531 10.1755 12.3877C9.64017 12.3838 9.10091 12.3916 8.56554 12.3838C8.56944 11.4876 8.56554 10.5916 8.56554 9.6992C9.10091 9.69141 9.64017 9.6992 10.1755 9.69531C10.1911 8.82631 10.16 7.95342 10.1911 7.08442C10.2493 6.3899 10.5092 5.69563 11.0253 5.21843C11.65 4.6249 12.5343 4.42316 13.3724 4.3998C14.257 4.39201 15.1415 4.39591 16.0259 4.39591C16.0295 5.33085 16.0295 6.2619 16.0256 7.19685Z" fill="currentFill"/>
</svg>
