<svg viewBox="0 0 16 16" fill="none" xmlns="http://www.w3.org/2000/svg">
<path d="M8 3.99999V2.66666M8 3.99999C7.26362 3.99999 6.66666 4.59694 6.66666 5.33332C6.66666 6.0697 7.26362 6.66666 8 6.66666M8 3.99999C8.73638 3.99999 9.33333 4.59694 9.33333 5.33332C9.33333 6.0697 8.73638 6.66666 8 6.66666M4 12C4.73638 12 5.33333 11.403 5.33333 10.6667C5.33333 9.93028 4.73638 9.33332 4 9.33332M4 12C3.26362 12 2.66666 11.403 2.66666 10.6667C2.66666 9.93028 3.26362 9.33332 4 9.33332M4 12V13.3333M4 9.33332V2.66666M8 6.66666V13.3333M12 12C12.7364 12 13.3333 11.403 13.3333 10.6667C13.3333 9.93028 12.7364 9.33332 12 9.33332M12 12C11.2636 12 10.6667 11.403 10.6667 10.6667C10.6667 9.93028 11.2636 9.33332 12 9.33332M12 12V13.3333M12 9.33332V2.66666" stroke="currentColor" stroke-width="1.5" stroke-linecap="round" stroke-linejoin="round"/>
</svg>
