<svg width="30" height="30" viewBox="0 0 30 30" fill="none" xmlns="http://www.w3.org/2000/svg">
    <path d="M21.0329 8.3429C20.9406 8.17668 20.7558 8.0864 20.566 8.11809C20.3782 8.14978 20.2312 8.29656 20.1986 8.484C20.0138 9.55631 19.4348 12.1924 18.6512 13.7813C18.5816 13.3072 18.5221 12.8055 18.4638 12.3132C18.3786 11.5906 18.2979 10.9078 18.1882 10.3342C17.288 5.25689 15.1467 1.59063 15.0561 1.43698C14.9578 1.27076 14.7641 1.18616 14.5757 1.22652C14.3871 1.26718 14.2454 1.42412 14.2245 1.61604C13.6176 7.15698 11.9734 12.4887 10.9956 14.6847C10.4428 10.7237 11.8517 5.71099 11.8676 5.65598C11.9259 5.4518 11.8332 5.23507 11.6455 5.13612C11.458 5.03747 11.2266 5.08291 11.0912 5.24643C11.0356 5.31369 9.71369 6.91544 8.37322 9.29922C6.56191 12.5201 5.64355 15.4802 5.64355 18.0975C5.64355 20.5028 6.16671 22.741 7.04411 24.0916C8.55288 26.9528 11.4915 28.7297 14.7183 28.7297C18.0193 28.7297 21.0784 26.8063 22.5208 23.8273C23.2583 22.7296 23.698 20.8971 23.698 18.9139C23.6977 13.2211 21.1417 8.5396 21.0329 8.3429ZM21.7612 23.3493C21.748 23.3682 21.7366 23.3882 21.7268 23.4088C20.4386 26.0963 17.6877 27.8329 14.7183 27.8329C11.8189 27.8329 9.17888 26.2323 7.82824 23.656C7.82137 23.6432 7.81419 23.6303 7.80612 23.6184C7.01362 22.4097 6.54039 20.3461 6.54039 18.0975C6.54039 14.0835 8.95287 9.86423 10.5044 7.56594C10.0715 9.788 9.62251 13.3024 10.3582 16.0703C10.4004 16.2288 10.5256 16.3513 10.685 16.3905C10.8443 16.4302 11.0123 16.3782 11.1226 16.2572C12.0129 15.2817 14.0538 9.42627 14.9354 3.15561C15.6403 4.63628 16.7398 7.29898 17.3069 10.4965C17.4118 11.0448 17.4904 11.712 17.5741 12.4184C17.683 13.3404 17.7957 14.2937 17.9789 15.0802C18.0169 15.2431 18.1424 15.3714 18.3045 15.4126C18.4674 15.4536 18.6381 15.4019 18.7499 15.2772C19.7457 14.1642 20.4548 11.5598 20.8144 9.96138C21.5665 11.6839 22.8012 15.0943 22.8012 18.9136C22.8009 20.7132 22.4024 22.413 21.7612 23.3493Z" fill="#0792B7"/>
</svg>