<svg width="30" height="30" viewBox="0 0 30 30" fill="none" xmlns="http://www.w3.org/2000/svg">
    <path d="M28.1389 10.8055L15.2308 3.08319C15.0883 2.99799 14.9107 2.99799 14.7685 3.08319L1.86155 10.8055C1.64825 10.933 1.57895 11.2093 1.70645 11.4226C1.83395 11.6359 2.11025 11.7055 2.32355 11.5777L14.9995 3.99369L27.6766 11.5777C27.7489 11.6212 27.8287 11.6416 27.9076 11.6416C28.0606 11.6416 28.2097 11.5636 28.294 11.4226C28.4215 11.2093 28.3522 10.933 28.1389 10.8055Z" fill="#0792B7"/>
    <path d="M24.6951 18.0548H20.3901L17.6085 13.0868C17.529 12.9446 17.3787 12.8567 17.2158 12.8567H10.1613C10.0455 12.8567 9.93394 12.9014 9.85024 12.9818L4.41844 18.1796C4.32964 18.2645 4.27954 18.3821 4.27954 18.5048V24.3167C4.27954 24.5651 4.48084 24.7667 4.72954 24.7667H7.80634C8.02084 26.0216 9.11404 26.981 10.4295 26.981C11.745 26.981 12.8379 26.0216 13.0524 24.7667H18.0738C18.2883 26.0216 19.3815 26.981 20.6967 26.981C22.0119 26.981 23.1051 26.0216 23.3196 24.7667H25.8852C26.1336 24.7667 26.3352 24.5651 26.3352 24.3167V19.7042C26.3358 18.7637 25.6308 18.0548 24.6951 18.0548ZM10.4295 26.081C9.45664 26.081 8.66554 25.2896 8.66554 24.3173C8.66554 23.3444 9.45694 22.553 10.4295 22.553C11.4021 22.553 12.1935 23.3444 12.1935 24.3173C12.1935 25.2896 11.4021 26.081 10.4295 26.081ZM20.697 26.081C19.725 26.081 18.9339 25.2905 18.933 24.3188C18.933 24.3182 18.9333 24.3173 18.9333 24.3167C18.9333 24.3161 18.933 24.3155 18.933 24.3149C18.9342 23.3429 19.725 22.553 20.697 22.553C21.6696 22.553 22.461 23.3444 22.461 24.3173C22.461 25.2896 21.6696 26.081 20.697 26.081ZM25.4358 23.8667H23.3199C23.1048 22.6121 22.0122 21.653 20.697 21.653C19.3818 21.653 18.2892 22.6121 18.0741 23.8667H13.0524C12.8373 22.6121 11.7447 21.653 10.4295 21.653C9.11434 21.653 8.02174 22.6121 7.80664 23.8667H5.17954V18.6968L10.3419 13.7567H16.9524L19.734 18.7244C19.8135 18.8669 19.9638 18.9548 20.1267 18.9548H24.6954C25.1313 18.9548 25.4361 19.2629 25.4361 19.7042V23.8667H25.4358Z" fill="#0792B7"/>
</svg>