<svg viewBox="0 0 24 22" fill="none" xmlns="http://www.w3.org/2000/svg">
<path d="M23.3698 13.4882V22H18.4349V14.0582C18.4349 12.0632 17.721 10.7017 15.9352 10.7017C14.5716 10.7017 13.7602 11.6193 13.403 12.5071C13.2728 12.8245 13.2392 13.2663 13.2392 13.7101V22H8.30273C8.30273 22 8.3691 8.54917 8.30273 7.15579H13.2383V9.25979C13.2284 9.27555 13.2155 9.29255 13.206 9.3079H13.2383V9.25979C13.8942 8.24973 15.0653 6.80692 17.6865 6.80692C20.9351 6.80692 23.3698 8.92874 23.3698 13.4882ZM3.13936 0C1.45059 0 0.346313 1.10759 0.346313 2.56447C0.346313 3.98941 1.41906 5.1306 3.07422 5.1306H3.107C4.82853 5.1306 5.8988 3.98941 5.8988 2.56447C5.86644 1.10759 4.82853 0 3.13936 0ZM0.639597 22H5.57398V7.15579H0.639597V22Z" fill="currentColor"/>
</svg>
