<svg viewBox="0 0 25 25" fill="none" xmlns="http://www.w3.org/2000/svg">
<path d="M12.5 0.318604C5.87265 0.318604 0.5 5.69125 0.5 12.3186C0.5 18.946 5.87265 24.3186 12.5 24.3186C19.1274 24.3186 24.5 18.946 24.5 12.3186C24.5 5.69125 19.1274 0.318604 12.5 0.318604ZM9.28683 17.9137H6.3922V9.20569H9.28683V17.9137ZM7.83963 8.01742H7.82017C6.84921 8.01742 6.21991 7.34797 6.21991 6.51207C6.21991 5.65767 6.86794 5.00769 7.85861 5.00769C8.84929 5.00769 9.45839 5.65743 9.47737 6.51207C9.47737 7.34821 8.84953 8.01742 7.83963 8.01742ZM19.7262 17.9137H16.8314V13.2548C16.8314 12.0845 16.4126 11.2858 15.3649 11.2858C14.5651 11.2858 14.0891 11.8241 13.8795 12.3449C13.8031 12.531 13.7834 12.7902 13.7834 13.0506V17.9137H10.8876C10.8876 17.9137 10.9265 10.0231 10.8876 9.20569H13.7829V10.44C14.1677 9.8474 14.8546 9.00103 16.3924 9.00103C18.2975 9.00103 19.7257 10.2455 19.7257 12.9204V17.9137H19.7262Z" fill="currentFill"/>
</svg>
