<svg width="400" height="70" viewBox="0 0 400 70" fill="none" xmlns="http://www.w3.org/2000/svg">
<path d="M0.906735 28.1399V65.5934H14.5188V28.1399H0.906735ZM0.59712 16.6398C0.995199 17.5417 1.54809 18.3363 2.25578 19.0128C2.95242 19.7 3.77069 20.2262 4.69955 20.6235C5.62839 21.01 6.61254 21.2032 7.67409 21.2032C8.72458 21.2032 9.71977 21.01 10.6486 20.6235C11.5775 20.2369 12.3847 19.7 13.0924 19.0128C13.789 18.3363 14.3419 17.5417 14.7511 16.6398C15.1491 15.7378 15.3482 14.7821 15.3482 13.7513C15.3482 12.7205 15.1491 11.7648 14.7511 10.8628C14.353 9.96086 13.8001 9.17699 13.0924 8.48977C12.3847 7.8133 11.5775 7.2764 10.6486 6.87912C9.71977 6.49256 8.73564 6.29927 7.67409 6.29927C6.6236 6.29927 5.62839 6.49256 4.69955 6.87912C3.77069 7.26568 2.95242 7.80256 2.25578 8.48977C1.54809 9.17699 1.00626 9.96086 0.59712 10.8628C0.19904 11.7648 0 12.7205 0 13.7513C0 14.7821 0.19904 15.7485 0.59712 16.6398ZM20.8328 65.6041H34.4449V47.1351C34.4449 45.1378 34.6108 43.5164 34.9315 42.2815C35.2521 41.036 35.7055 40.0696 36.2805 39.361C36.8556 38.6521 37.519 38.1798 38.2708 37.9327C39.0228 37.6858 39.8191 37.5676 40.6816 37.5676C41.6877 37.5676 42.5614 37.7073 43.3132 37.965C44.0652 38.2334 44.6733 38.7274 45.1598 39.4575C45.6354 40.1877 46.0004 41.1756 46.2547 42.4104C46.509 43.656 46.6305 45.2237 46.6305 47.1244V65.5934H60.2427V47.1244C60.2427 40.9393 62.4211 37.8469 66.7889 37.8469C67.585 37.8469 68.3369 37.965 69.0447 38.2119C69.7414 38.4589 70.3605 38.9206 70.8913 39.5971C71.4221 40.2844 71.8202 41.2292 72.0965 42.4426C72.373 43.656 72.5058 45.213 72.5058 47.1136V65.5826H86.1179V41.2722C86.1179 38.7917 85.775 36.6764 85.1006 34.9154C84.426 33.1651 83.5082 31.737 82.3581 30.6418C81.2082 29.5466 79.826 28.7412 78.2226 28.2365C76.6192 27.7211 74.9164 27.4742 73.114 27.4742C67.4523 27.4742 63.0846 29.8364 60.0325 34.5611C57.0249 29.8902 52.6682 27.5493 46.9512 27.5493C42.3402 27.5493 38.1825 29.2781 34.467 32.7357V28.1399H20.8549V65.6041H20.8328ZM92.4097 65.6041H106.022V47.1351C106.022 45.1378 106.188 43.5164 106.508 42.2815C106.829 41.036 107.282 40.0696 107.857 39.361C108.432 38.6521 109.096 38.1798 109.848 37.9327C110.6 37.6858 111.396 37.5676 112.258 37.5676C113.265 37.5676 114.138 37.7073 114.89 37.965C115.642 38.2334 116.25 38.7274 116.737 39.4575C117.212 40.1877 117.577 41.1756 117.832 42.4104C118.086 43.656 118.207 45.2237 118.207 47.1244V65.5934H131.82V47.1244C131.82 40.9393 133.998 37.8469 138.366 37.8469C139.162 37.8469 139.914 37.965 140.622 38.2119C141.318 38.4589 141.937 38.9206 142.468 39.5971C142.999 40.2844 143.397 41.2292 143.673 42.4426C143.95 43.656 144.083 45.213 144.083 47.1136V65.5826H157.694V41.2722C157.694 38.7917 157.352 36.6764 156.677 34.9154C156.003 33.1651 155.085 31.737 153.935 30.6418C152.785 29.5466 151.403 28.7412 149.799 28.2365C148.196 27.7211 146.493 27.4742 144.691 27.4742C139.029 27.4742 134.661 29.8364 131.609 34.5611C128.602 29.8902 124.245 27.5493 118.528 27.5493C113.917 27.5493 109.759 29.2781 106.044 32.7357V28.1399H92.4318V65.6041H92.4097ZM177.566 43.4091C178.042 42.389 178.671 41.487 179.445 40.7031C180.219 39.93 181.148 39.3179 182.232 38.8777C183.304 38.4374 184.455 38.2227 185.649 38.2227C186.842 38.2227 187.993 38.4374 189.065 38.8777C190.138 39.3179 191.067 39.93 191.852 40.7031C192.626 41.487 193.257 42.3997 193.733 43.4413C194.207 44.4936 194.45 45.5995 194.45 46.7593C194.45 47.9725 194.207 49.1108 193.733 50.1524C193.257 51.2047 192.626 52.1174 191.852 52.8904C191.078 53.6744 190.149 54.2756 189.065 54.716C187.982 55.1561 186.842 55.371 185.649 55.371C184.455 55.371 183.304 55.1561 182.232 54.716C181.148 54.2756 180.23 53.6744 179.445 52.8904C178.671 52.1174 178.042 51.2047 177.566 50.1524C177.09 49.1108 176.847 47.9511 176.847 46.684C176.847 45.5244 177.09 44.4291 177.566 43.4091ZM164.219 54.9092C165.369 57.4218 166.961 59.5693 168.996 61.3734C171.03 63.1773 173.442 64.5625 176.25 65.5396C179.059 66.5168 182.111 67 185.428 67C188.789 67 191.907 66.5168 194.794 65.5396C197.679 64.5625 200.146 63.188 202.202 61.4163C204.259 59.6446 205.874 57.5185 207.056 55.0596C208.229 52.6006 208.826 49.8839 208.826 46.9204C208.826 43.9567 208.251 41.24 207.1 38.781C205.951 36.3221 204.325 34.2067 202.246 32.4243C200.168 30.6525 197.712 29.2566 194.882 28.258C192.051 27.2595 188.977 26.7655 185.671 26.7655C182.31 26.7655 179.213 27.2809 176.382 28.301C173.552 29.321 171.107 30.7276 169.051 32.4995C166.994 34.282 165.391 36.3651 164.241 38.781C163.091 41.1863 162.515 43.7849 162.515 46.5551C162.493 49.6155 163.069 52.3966 164.219 54.9092ZM243.658 50.1953C243.183 51.2154 242.552 52.1174 241.778 52.9012C241.004 53.6851 240.087 54.2864 239.035 54.7267C237.985 55.1668 236.858 55.3817 235.652 55.3817C234.446 55.3817 233.308 55.1561 232.236 54.6838C231.151 54.222 230.212 53.61 229.415 52.8582C228.608 52.1066 227.989 51.2154 227.536 50.1953C227.082 49.1752 226.86 48.08 226.86 46.9095C226.86 45.7392 227.093 44.6332 227.579 43.5916C228.055 42.5501 228.686 41.6372 229.46 40.8534C230.234 40.0804 231.151 39.4683 232.201 39.0281C233.253 38.5877 234.38 38.373 235.586 38.373C236.836 38.373 237.996 38.6092 239.046 39.071C240.098 39.5326 241.026 40.1555 241.833 40.9285C242.63 41.7125 243.26 42.6252 243.713 43.6667C244.167 44.719 244.388 45.825 244.388 46.9847C244.377 48.1014 244.134 49.1752 243.658 50.1953ZM213.625 5V65.6041H227.237V61.4378C230.145 64.9919 234.104 66.7637 239.113 66.7637C241.867 66.7637 244.443 66.2375 246.82 65.1959C249.198 64.1544 251.266 62.7262 253.024 60.9223C254.783 59.1184 256.142 57.0031 257.126 54.5656C258.1 52.1281 258.597 49.5295 258.597 46.7486C258.597 44.0211 258.122 41.4547 257.17 39.0495C256.219 36.6442 254.903 34.5503 253.222 32.7679C251.542 30.9962 249.508 29.5788 247.129 28.5372C244.753 27.4956 242.132 26.9695 239.267 26.9695C234.457 26.9695 230.445 28.6016 227.237 31.8659V5H213.625ZM263.318 28.1399V65.5934H276.931V28.1399H263.318ZM263.02 16.6398C263.419 17.5417 263.971 18.3363 264.679 19.0128C265.375 19.7 266.194 20.2262 267.122 20.6235C268.051 21.01 269.036 21.2032 270.097 21.2032C271.158 21.2032 272.142 21.01 273.072 20.6235C274 20.2369 274.808 19.7 275.515 19.0128C276.212 18.3363 276.764 17.5417 277.174 16.6398C277.573 15.7378 277.771 14.7821 277.771 13.7513C277.771 12.7205 277.573 11.7648 277.174 10.8628C276.775 9.96086 276.223 9.17699 275.515 8.48977C274.808 7.8133 274 7.2764 273.072 6.87912C272.142 6.49256 271.158 6.29927 270.097 6.29927C269.036 6.29927 268.051 6.49256 267.122 6.87912C266.194 7.26568 265.375 7.80256 264.679 8.48977C263.971 9.17699 263.43 9.96086 263.02 10.8628C262.621 11.7648 262.423 12.7205 262.423 13.7513C262.423 14.7821 262.621 15.7485 263.02 16.6398ZM283.245 5V65.6041H296.857V5H283.245ZM303.171 28.1399V65.5934H316.782V28.1399H303.171ZM302.872 16.6398C303.27 17.5417 303.823 18.3363 304.531 19.0128C305.228 19.7 306.046 20.2262 306.975 20.6235C307.903 21.01 308.887 21.2032 309.949 21.2032C310.999 21.2032 311.994 21.01 312.924 20.6235C313.853 20.2369 314.66 19.7 315.368 19.0128C316.063 18.3363 316.617 17.5417 317.026 16.6398C317.424 15.7378 317.624 14.7821 317.624 13.7513C317.624 12.7205 317.424 11.7648 317.026 10.8628C316.628 9.96086 316.074 9.17699 315.368 8.48977C314.66 7.8133 313.853 7.2764 312.924 6.87912C311.994 6.49256 311.01 6.29927 309.949 6.29927C308.898 6.29927 307.903 6.49256 306.975 6.87912C306.046 7.26568 305.228 7.80256 304.531 8.48977C303.823 9.17699 303.281 9.96086 302.872 10.8628C302.474 11.7648 302.275 12.7205 302.275 13.7513C302.275 14.7821 302.474 15.7485 302.872 16.6398ZM335.736 41.4332C336.089 39.4897 336.93 37.9758 338.257 36.902C339.583 35.8282 341.298 35.2912 343.409 35.2912C345.411 35.2912 347.114 35.8497 348.519 36.9664C349.923 38.0831 350.852 39.5757 351.306 41.4225H335.736V41.4332ZM364 49.1001V47.7149C364 44.4505 363.524 41.5192 362.573 38.9206C361.622 36.3221 360.24 34.1102 358.438 32.317C356.636 30.5129 354.424 29.1385 351.825 28.1936C349.215 27.2487 346.285 26.7655 343.023 26.7655C339.717 26.7655 336.742 27.238 334.111 28.1936C331.478 29.1385 329.233 30.4915 327.376 32.2417C325.519 33.992 324.092 36.1288 323.085 38.6307C322.079 41.1434 321.582 43.946 321.582 47.0598C321.582 50.0771 322.112 52.8046 323.162 55.2421C324.214 57.6796 325.706 59.7735 327.641 61.5236C329.566 63.2739 331.888 64.6269 334.597 65.5717C337.306 66.5168 340.28 67 343.543 67C354.169 67 360.815 62.7155 363.469 54.1469H350.311C348.807 56.4877 346.573 57.6473 343.62 57.6473C338.101 57.6473 335.349 54.8018 335.349 49.1001H364Z" fill="#30302E"/>
<path d="M383.346 70H400V0L374 8.50411V22.0339H383.346V70Z" fill="#1B9CB5"/>
</svg>
