<svg width="20" height="21" viewBox="0 0 20 21" fill="none" xmlns="http://www.w3.org/2000/svg">
    <path d="M15.833 17.58V4.248a1.667 1.667 0 0 0-1.666-1.666H5.833a1.667 1.667 0 0 0-1.666 1.666v13.334m11.666 0H4.167m11.666 0H17.5m-1.667 0h-4.166m-7.5 0H2.5m1.667 0h4.166m3.334 0v-4.167a.833.833 0 0 0-.834-.833H9.167a.833.833 0 0 0-.834.833v4.167m3.334 0H8.333M7.5 5.914h.833M7.5 9.247h.833m3.334-3.333h.833m-.833 3.333h.833" stroke="currentColor" stroke-width="1.5" stroke-linecap="round" stroke-linejoin="round"/>
</svg>
