<svg viewBox="0 0 17 16" fill="none" xmlns="http://www.w3.org/2000/svg">
<path d="M6.72792 2.68377L6.01641 2.92094V2.92094L6.72792 2.68377ZM7.55907 5.17721L6.84756 5.41438L7.55907 5.17721ZM5.81134 7.011L5.47593 6.34018C5.1159 6.52019 4.96217 6.95231 5.12762 7.31926L5.81134 7.011ZM9.489 10.6887L9.18074 11.3724C9.54769 11.5378 9.97981 11.3841 10.1598 11.0241L9.489 10.6887ZM10.1121 9.4424L9.44131 9.10699L10.1121 9.4424ZM11.3228 8.94093L11.0856 9.65244L11.3228 8.94093ZM13.8162 9.77208L14.0534 9.06056L13.8162 9.77208ZM4.5 1.25C2.98122 1.25 1.75 2.48122 1.75 4H3.25C3.25 3.30964 3.80964 2.75 4.5 2.75V1.25ZM5.77924 1.25H4.5V2.75H5.77924V1.25ZM7.43944 2.4466C7.20124 1.732 6.53249 1.25 5.77924 1.25V2.75C5.88685 2.75 5.98238 2.81886 6.01641 2.92094L7.43944 2.4466ZM8.27058 4.94004L7.43944 2.4466L6.01641 2.92094L6.84756 5.41438L8.27058 4.94004ZM7.39301 7.05869C8.17196 6.66921 8.54598 5.76624 8.27058 4.94004L6.84756 5.41438C6.8869 5.53241 6.83347 5.66141 6.72219 5.71705L7.39301 7.05869ZM6.14675 7.68182L7.39301 7.05869L6.72219 5.71705L5.47593 6.34018L6.14675 7.68182ZM9.79727 10.0049C8.3342 9.34529 7.15471 8.1658 6.49506 6.70273L5.12762 7.31926C5.93763 9.11583 7.38418 10.5624 9.18074 11.3724L9.79727 10.0049ZM9.44131 9.10699L8.81818 10.3533L10.1598 11.0241L10.783 9.77781L9.44131 9.10699ZM11.56 8.22942C10.7338 7.95402 9.83079 8.32804 9.44131 9.10699L10.783 9.77781C10.8386 9.66653 10.9676 9.6131 11.0856 9.65244L11.56 8.22942ZM14.0534 9.06056L11.56 8.22942L11.0856 9.65244L13.5791 10.4836L14.0534 9.06056ZM15.25 10.7208C15.25 9.96751 14.768 9.29876 14.0534 9.06056L13.5791 10.4836C13.6811 10.5176 13.75 10.6132 13.75 10.7208H15.25ZM15.25 12V10.7208H13.75V12H15.25ZM12.5 14.75C14.0188 14.75 15.25 13.5188 15.25 12H13.75C13.75 12.6904 13.1904 13.25 12.5 13.25V14.75ZM1.75 4C1.75 9.93706 6.56294 14.75 12.5 14.75V13.25C7.39137 13.25 3.25 9.10863 3.25 4H1.75Z" fill="currentColor"/>
</svg>
