<svg viewBox="0 0 32 32" fill="none" xmlns="http://www.w3.org/2000/svg">
<path fill-rule="evenodd" clip-rule="evenodd" d="M16.0002 28.8C23.0694 28.8 28.8002 23.0692 28.8002 16C28.8002 8.93076 23.0694 3.20001 16.0002 3.20001C8.93095 3.20001 3.2002 8.93076 3.2002 16C3.2002 23.0692 8.93095 28.8 16.0002 28.8ZM17.6002 11.2C17.6002 10.3164 16.8838 9.60001 16.0002 9.60001C15.1165 9.60001 14.4002 10.3164 14.4002 11.2V14.4H11.2002C10.3165 14.4 9.60019 15.1163 9.60019 16C9.60019 16.8837 10.3165 17.6 11.2002 17.6H14.4002V20.8C14.4002 21.6837 15.1165 22.4 16.0002 22.4C16.8838 22.4 17.6002 21.6837 17.6002 20.8V17.6H20.8002C21.6838 17.6 22.4002 16.8837 22.4002 16C22.4002 15.1163 21.6838 14.4 20.8002 14.4H17.6002V11.2Z" fill="currentColor"/>
</svg>
