<svg viewBox="0 0 30 30" fill="none" xmlns="http://www.w3.org/2000/svg">
    <path d="M21.25 21.25H23.75C25.1307 21.25 26.25 20.1307 26.25 18.75V13.75C26.25 12.3693 25.1307 11.25 23.75 11.25H6.25C4.86929 11.25 3.75 12.3693 3.75 13.75V18.75C3.75 20.1307 4.86929 21.25 6.25 21.25H8.75M11.25 26.25H18.75C20.1307 26.25 21.25 25.1307 21.25 23.75V18.75C21.25 17.3693 20.1307 16.25 18.75 16.25H11.25C9.86929 16.25 8.75 17.3693 8.75 18.75V23.75C8.75 25.1307 9.86929 26.25 11.25 26.25ZM21.25 11.25V6.25C21.25 4.86929 20.1307 3.75 18.75 3.75H11.25C9.86929 3.75 8.75 4.86929 8.75 6.25V11.25H21.25Z" stroke="currentColor" stroke-width="1.5" stroke-linecap="round" stroke-linejoin="round"/>
</svg>