<svg viewBox="0 0 30 30" fill="none" xmlns="http://www.w3.org/2000/svg">
    <path d="M10.8548 16.6774C11.1077 16.1727 11.25 15.603 11.25 15C11.25 14.397 11.1077 13.8273 10.8548 13.3226M10.8548 16.6774C10.2392 17.9064 8.96811 18.75 7.5 18.75C5.42893 18.75 3.75 17.0711 3.75 15C3.75 12.9289 5.42893 11.25 7.5 11.25C8.96811 11.25 10.2392 12.0936 10.8548 13.3226M10.8548 16.6774L19.1452 20.8226M10.8548 13.3226L19.1452 9.17742M19.1452 9.17742C19.7608 10.4064 21.0319 11.25 22.5 11.25C24.5711 11.25 26.25 9.57107 26.25 7.5C26.25 5.42893 24.5711 3.75 22.5 3.75C20.4289 3.75 18.75 5.42893 18.75 7.5C18.75 8.10296 18.8923 8.67268 19.1452 9.17742ZM19.1452 20.8226C18.8923 21.3273 18.75 21.897 18.75 22.5C18.75 24.5711 20.4289 26.25 22.5 26.25C24.5711 26.25 26.25 24.5711 26.25 22.5C26.25 20.4289 24.5711 18.75 22.5 18.75C21.0319 18.75 19.7608 19.5936 19.1452 20.8226Z" stroke="currentColor" stroke-width="1.5" stroke-linecap="round" stroke-linejoin="round"/>
</svg>