<svg width="30" height="30" viewBox="0 0 30 30" fill="none" xmlns="http://www.w3.org/2000/svg">
    <path d="M24.802 4.45557H15.1931H15.1307H15.0684H5.49511C5.37694 4.45557 5.26361 4.50251 5.18006 4.58606C5.0965 4.66962 5.04956 4.78295 5.04956 4.90111V23.911C5.04956 24.0292 5.0965 24.1425 5.18006 24.2261C5.26361 24.3096 5.37694 24.3566 5.49511 24.3566H6.85847C6.84107 24.4042 6.83202 24.4544 6.83174 24.5051V25.6932C6.83174 25.8114 6.87868 25.9247 6.96224 26.0082C7.04579 26.0918 7.15912 26.1387 7.27728 26.1387C7.39545 26.1387 7.50877 26.0918 7.59233 26.0082C7.67589 25.9247 7.72283 25.8114 7.72283 25.6932V24.5051C7.72254 24.4544 7.7135 24.4042 7.6961 24.3566H22.601C22.5836 24.4042 22.5746 24.4544 22.5743 24.5051V25.6932C22.5743 25.8114 22.6213 25.9247 22.7048 26.0082C22.7884 26.0918 22.9017 26.1387 23.0199 26.1387C23.138 26.1387 23.2514 26.0918 23.3349 26.0082C23.4185 25.9247 23.4654 25.8114 23.4654 25.6932V24.5051C23.4651 24.4544 23.4561 24.4042 23.4387 24.3566H24.802C24.9202 24.3566 25.0335 24.3096 25.1171 24.2261C25.2006 24.1425 25.2476 24.0292 25.2476 23.911V4.90111C25.2476 4.78295 25.2006 4.66962 25.1171 4.58606C25.0335 4.50251 24.9202 4.45557 24.802 4.45557ZM5.94065 20.3467V19.01H7.49709L8.22778 21.6833H5.94065V20.3467ZM8.31689 18.615C8.31689 18.615 8.31689 18.5942 8.31689 18.5853C8.74164 18.0833 9.89411 16.6843 11.1595 14.8516H19.307C20.6317 16.6902 21.8585 18.1189 22.2773 18.6031L21.9327 19.9011H8.66144L8.31689 18.615ZM15.7426 13.9605V10.9902H16.8357C17.3585 11.9377 17.9793 12.9358 18.6803 13.9605H15.7426ZM13.9605 10.0991C14.445 9.12003 14.8425 8.10027 15.1486 7.05161C15.4606 8.10252 15.8682 9.12263 16.3664 10.0991H13.9605ZM13.5149 10.9902H14.8515V13.9605H11.7535C12.3624 13.0338 12.9684 12.0298 13.5149 10.9902ZM23.0971 19.01H24.3565V21.6833H22.3694L23.0971 19.01ZM24.3565 5.34666V18.1189H23.0496C21.9324 16.8503 20.8815 15.5247 19.901 14.1476C19.0543 12.9738 18.2777 11.7508 17.5753 10.4853C16.5001 8.5219 15.8644 6.79616 15.6832 5.34666H24.3565ZM14.5812 5.34666C13.9605 10.4556 8.18916 17.3585 7.54164 18.1189H5.94065V5.34666H14.5812ZM5.94065 23.4655V22.5744H8.80699C8.87541 22.5745 8.94294 22.5588 9.00432 22.5285C9.06571 22.4983 9.1193 22.4543 9.16095 22.4C9.20261 22.3457 9.23119 22.2826 9.2445 22.2155C9.2578 22.1483 9.25547 22.0791 9.23768 22.013L8.91095 20.7922H21.6832L21.3565 22.013C21.3387 22.0791 21.3364 22.1483 21.3497 22.2155C21.363 22.2826 21.3916 22.3457 21.4332 22.4C21.4749 22.4543 21.5285 22.4983 21.5898 22.5285C21.6512 22.5588 21.7188 22.5745 21.7872 22.5744H24.3565V23.4655H5.94065Z" fill="#0792B7"/>
</svg>