<svg viewBox="0 0 25 25" fill="none" xmlns="http://www.w3.org/2000/svg">
<path d="M12.5 0.318604C5.87265 0.318604 0.5 5.69125 0.5 12.3186C0.5 18.946 5.87265 24.3186 12.5 24.3186C19.1274 24.3186 24.5 18.946 24.5 12.3186C24.5 5.69125 19.1274 0.318604 12.5 0.318604ZM19.1619 9.45537V9.87198C19.1619 14.0379 16.0376 18.7591 10.2748 18.7591C8.46966 18.7591 6.87281 18.2731 5.48402 17.3705C5.76168 17.4399 5.96999 17.4399 6.24765 17.4399C7.70579 17.4399 9.09434 16.9539 10.1359 16.1207C8.74732 16.1207 7.63644 15.2181 7.21982 13.9683C7.35878 14.0376 7.56708 14.0376 7.77539 14.0376C8.05305 14.0376 8.33071 13.9683 8.60861 13.8987C7.15047 13.621 6.10918 12.3712 6.10918 10.8437V10.7743C6.52579 11.052 7.01176 11.1909 7.49773 11.1909C6.6645 10.6354 6.10918 9.73278 6.10918 8.6219C6.10918 7.99698 6.24813 7.51101 6.52579 7.02504C8.12265 8.89956 10.414 10.1494 12.9828 10.2883C12.9134 10.08 12.9134 9.87173 12.9134 9.59407C12.9134 7.85827 14.302 6.46972 16.0378 6.46972C16.9404 6.46972 17.7736 6.81698 18.3289 7.44166C19.0926 7.3027 19.7175 7.02504 20.3424 6.67803C20.0647 7.44166 19.5788 7.99722 18.9538 8.41383C19.5788 8.34448 20.2037 8.20553 20.759 7.92787C20.3424 8.55279 19.8562 9.10811 19.1619 9.45537Z" fill="currentFill"/>
</svg>
